<?xml version="1.0" encoding="UTF-8" standalone="no"?>
<!-- Created with Inkscape (http://www.inkscape.org/) -->

<svg
   xmlns:dc="http://purl.org/dc/elements/1.1/"
   xmlns:cc="http://creativecommons.org/ns#"
   xmlns:rdf="http://www.w3.org/1999/02/22-rdf-syntax-ns#"
   xmlns:svg="http://www.w3.org/2000/svg"
   xmlns="http://www.w3.org/2000/svg"
   xmlns:xlink="http://www.w3.org/1999/xlink"
   xmlns:sodipodi="http://sodipodi.sourceforge.net/DTD/sodipodi-0.dtd"
   xmlns:inkscape="http://www.inkscape.org/namespaces/inkscape"
   width="744.09448819"
   height="1052.3622047"
   id="svg2"
   version="1.1"
   inkscape:version="0.48.2 r9819"
   sodipodi:docname="New document 1">
  <defs
     id="defs4">
    <linearGradient
       id="linearGradient3773">
      <stop
         style="stop-color:#9d9d9d;stop-opacity:1"
         offset="0"
         id="stop3775" />
      <stop
         id="stop3781"
         offset="0.15603667"
         style="stop-color:#b1b1b1;stop-opacity:1" />
      <stop
         style="stop-color:#ffffff;stop-opacity:1"
         offset="1"
         id="stop3777" />
    </linearGradient>
    <linearGradient
       inkscape:collect="always"
       xlink:href="#linearGradient3773"
       id="linearGradient3779"
       x1="432.34528"
       y1="655.37225"
       x2="518.20825"
       y2="922.05249"
       gradientUnits="userSpaceOnUse"
       spreadMethod="reflect"
       gradientTransform="translate(-869.74134,0)" />
  </defs>
  <sodipodi:namedview
     id="base"
     pagecolor="#ffffff"
     bordercolor="#666666"
     borderopacity="1.0"
     inkscape:pageopacity="0.0"
     inkscape:pageshadow="2"
     inkscape:zoom="0.98994949"
     inkscape:cx="100.04395"
     inkscape:cy="470.04628"
     inkscape:document-units="px"
     inkscape:current-layer="g3804"
     showgrid="false"
     showguides="true"
     inkscape:guide-bbox="true"
     inkscape:window-width="1920"
     inkscape:window-height="1005"
     inkscape:window-x="-9"
     inkscape:window-y="-9"
     inkscape:window-maximized="1">
    <sodipodi:guide
       orientation="0,1"
       position="1151.4286,328.57143"
       id="guide2985" />
    <sodipodi:guide
       orientation="0,1"
       position="222.85714,480"
       id="guide2987" />
    <sodipodi:guide
       orientation="1,0"
       position="518.20826,597.00015"
       id="guide3771" />
  </sodipodi:namedview>
  <metadata
     id="metadata7">
    <rdf:RDF>
      <cc:Work
         rdf:about="">
        <dc:format>image/svg+xml</dc:format>
        <dc:type
           rdf:resource="http://purl.org/dc/dcmitype/StillImage" />
        <dc:title></dc:title>
      </cc:Work>
    </rdf:RDF>
  </metadata>
  <g
     inkscape:label="Layer 1"
     inkscape:groupmode="layer"
     id="layer1">
    <rect
       ry="26.263966"
       y="572.36218"
       x="-568.13916"
       height="151.42868"
       width="216.60606"
       id="rect3769"
       style="fill:url(#linearGradient3779);fill-opacity:1;fill-rule:evenodd;stroke:none" />
    <path
       style="fill:#dfdfdf;fill-opacity:1;fill-rule:evenodd;stroke:none"
       d="m -542.43671,572.375 c -14.55024,0 -26.28125,11.69976 -26.28125,26.25 l 0,98.90625 c 0,14.55024 11.73101,26.25 26.28125,26.25 l 164.0625,0 c 14.55024,0 26.25,-11.69976 26.25,-26.25 l 0,-98.90625 c 0,-14.55024 -11.69976,-26.25 -26.25,-26.25 l -164.0625,0 z m 162.71875,8.78125 c 0.57076,-0.0201 1.15178,-0.003 1.71875,0.0312 7.79482,0.46972 15.17737,6.36864 16.5,13.84375 0.86686,32.6087 0.11081,65.52993 0.375,98.5625 a 6.9985469,6.9985469 0 0 0 0.0625,0.9375 c 1.27668,8.95747 -5.44543,18.67952 -14.25,20 -54.27807,0.57841 -108.70684,0.0792 -163.15625,0.25 a 6.9985469,6.9985469 0 0 0 -0.9375,0.0625 c -8.98458,1.27126 -18.73693,-5.42276 -20.03125,-14.21875 -0.65456,-32.84376 -0.0816,-65.87503 -0.28125,-99.03125 a 6.9985469,6.9985469 0 0 0 -0.0625,-0.84375 c -1.15647,-9.22114 6.9851,-19.14511 16.21875,-19.34375 53.71575,-0.0728 107.45136,-0.0103 161.1875,-0.0312 a 6.9985469,6.9985469 0 0 0 0.96875,-0.0625 c 0.55624,-0.0787 1.11674,-0.13614 1.6875,-0.15625 z"
       id="rect3759"
       inkscape:connector-curvature="0" />
    <g
       id="g3812">
      <rect
         ry="26.263966"
         y="572.36218"
         x="-190.91885"
         height="151.42868"
         width="216.60606"
         id="rect2989"
         style="fill:#b6b6b6;fill-opacity:1;fill-rule:evenodd;stroke:none" />
      <path
         transform="translate(-233.12854,-6.2855377)"
         d="m 193.94928,654.36206 a 43.436558,43.436558 0 1 1 -86.87311,0 43.436558,43.436558 0 1 1 86.87311,0 z"
         sodipodi:ry="43.436558"
         sodipodi:rx="43.436558"
         sodipodi:cy="654.36206"
         sodipodi:cx="150.51273"
         id="path3783"
         style="fill:#ff4e4e;fill-opacity:1;stroke:none"
         sodipodi:type="arc" />
    </g>
    <g
       id="g3808"
       transform="translate(-7.6293945e-6,0)">
      <rect
         style="fill:#b6b6b6;fill-opacity:1;fill-rule:evenodd;stroke:none"
         id="rect3785"
         width="216.60606"
         height="151.42868"
         x="282.84268"
         y="572.36218"
         ry="26.263966" />
      <path
         transform="translate(516.65717,226.04955)"
         inkscape:transform-center-x="-12.879445"
         d="m -86.873119,422.02698 -38.638341,22.30785 -38.63833,22.30785 0,-44.6157 0,-44.61571 38.63834,22.30785 z"
         inkscape:randomized="0"
         inkscape:rounded="0"
         inkscape:flatsided="false"
         sodipodi:arg2="1.0471976"
         sodipodi:arg1="0"
         sodipodi:r2="25.75889"
         sodipodi:r1="51.51778"
         sodipodi:cy="422.02698"
         sodipodi:cx="-138.3909"
         sodipodi:sides="3"
         id="path3791"
         style="fill:#4e83ff;fill-opacity:1;stroke:none"
         sodipodi:type="star" />
    </g>
    <g
       id="g3804"
       transform="translate(-18.687798,0)">
      <rect
         ry="26.263966"
         y="572.36218"
         x="64.649712"
         height="151.42868"
         width="216.60606"
         id="rect3793"
         style="fill:#b6b6b6;fill-opacity:1;fill-rule:evenodd;stroke:none" />
      <rect
         ry="0"
         y="613.07654"
         x="137.95274"
         height="70"
         width="70"
         id="rect3802"
         style="fill:#4e83ff;fill-opacity:1;stroke:none" />
    </g>
  </g>
</svg>
